<svg id="visual" viewBox="0 0 540 960" width="540" height="960" xmlns="http://www.w3.org/2000/svg" xmlns:xlink="http://www.w3.org/1999/xlink" version="1.1"><rect x="0" y="0" width="540" height="960" fill="#4C6EF5"></rect><g transform="translate(10.086384086371737 6.50142197024536)"><path d="M196.9 -281.8C244.4 -236.4 264.9 -164.5 268.6 -99.8C272.3 -35.1 259.3 22.5 243.3 81.3C227.3 140.2 208.3 200.3 167.2 251.5C126.2 302.7 63.1 344.8 6.7 335.5C-49.6 326.3 -99.2 265.5 -151.8 218.1C-204.4 170.7 -260.1 136.7 -280 88C-299.9 39.3 -284 -23.9 -271.1 -95.6C-258.1 -167.3 -248.1 -247.5 -203.4 -293.8C-158.7 -340.1 -79.4 -352.6 -2.4 -349.3C74.6 -346.1 149.3 -327.2 196.9 -281.8" fill="#657CF9"></path></g></svg>